<svg width="198" height="42" viewBox="0 0 198 42" fill="none" xmlns="http://www.w3.org/2000/svg">
<path d="M21.8254 34.816C22.0814 34.816 22.2094 35.008 22.2094 35.392C22.2094 35.872 21.4574 36.608 19.9534 37.6C18.4814 38.592 16.5614 39.504 14.1934 40.336C11.8574 41.2 9.71344 41.632 7.76144 41.632C2.76944 41.632 0.273438 38.864 0.273438 33.328C0.273438 30.512 0.897438 27.68 2.14544 24.832C3.42544 21.984 5.05744 19.456 7.04144 17.248C9.05744 15.008 11.2334 13.008 13.5694 11.248C15.9374 9.48799 18.2734 8.14399 20.5774 7.21599C22.9134 6.25599 24.9614 5.77599 26.7214 5.77599C30.3694 5.77599 32.1934 7.18399 32.1934 9.99999C32.1934 12.112 31.2174 14.624 29.2654 17.536C27.3134 20.448 24.9294 22.976 22.1134 25.12C19.2974 27.264 16.7694 28.336 14.5294 28.336C12.8014 28.336 11.9374 27.52 11.9374 25.888C11.9374 23.808 13.2814 21.248 15.9694 18.208C18.6894 15.136 21.0094 13.6 22.9294 13.6C23.1854 13.6 23.3134 13.696 23.3134 13.888L23.0734 14.512C21.9214 14.512 20.5614 15.168 18.9934 16.48C17.4254 17.792 16.0974 19.312 15.0094 21.04C13.9214 22.768 13.3774 24.208 13.3774 25.36C13.3774 26.64 14.0334 27.28 15.3454 27.28C16.9774 27.28 18.9774 26.288 21.3454 24.304C23.7454 22.32 25.8094 19.984 27.5374 17.296C29.2974 14.576 30.1774 12.288 30.1774 10.432C30.1774 8.09599 28.7054 6.92799 25.7614 6.92799C24.2254 6.92799 22.4174 7.37599 20.3374 8.27199C18.2574 9.13599 16.1614 10.4 14.0494 12.064C11.9374 13.728 9.96944 15.6 8.14544 17.68C6.35344 19.76 4.88144 22.144 3.72944 24.832C2.60944 27.488 2.04944 30.144 2.04944 32.8C2.04944 37.856 4.28944 40.384 8.76944 40.384C11.1054 40.384 13.6334 39.76 16.3534 38.512C19.0734 37.232 20.8974 36 21.8254 34.816ZM23.6007 40.768C22.1607 40.768 21.4407 39.984 21.4407 38.416C21.4407 36.336 22.5607 33.36 24.8007 29.488C27.0727 25.584 29.6487 22.096 32.5287 19.024C35.4407 15.92 37.7287 14.368 39.3927 14.368C40.0007 14.368 40.3047 14.8 40.3047 15.664C40.3047 17.008 39.1687 19.2 36.8967 22.24C34.6567 25.28 32.2407 28.128 29.6487 30.784C27.0567 33.44 25.0567 35.264 23.6487 36.256C23.5847 36.768 23.5527 37.12 23.5527 37.312C23.5527 37.472 23.5687 37.664 23.6007 37.888C23.6327 38.112 23.7607 38.4 23.9847 38.752C24.2087 39.104 24.5767 39.28 25.0887 39.28C25.6327 39.28 26.5767 38.976 27.9207 38.368C29.2647 37.728 30.4487 37.088 31.4727 36.448L33.0087 35.488C33.0407 35.552 33.0567 35.68 33.0567 35.872C33.0567 36.064 32.9127 36.224 32.6247 36.352C28.3047 39.296 25.2967 40.768 23.6007 40.768ZM38.5767 16.816C38.5447 16.112 38.3367 15.76 37.9527 15.76C36.9607 15.76 35.4567 16.88 33.4407 19.12C31.4247 21.36 29.4727 24.048 27.5847 27.184C25.6967 30.288 24.4647 32.96 23.8887 35.2C25.2327 34.112 26.9607 32.512 29.0727 30.4C31.1847 28.288 33.2647 25.872 35.3127 23.152C37.3607 20.432 38.4487 18.32 38.5767 16.816ZM40.1779 25.36C40.6579 25.36 40.8979 25.6 40.8979 26.08C40.8979 26.56 40.6739 27.056 40.2259 27.568C39.7779 28.048 39.2819 28.288 38.7379 28.288C38.2899 28.288 38.0659 27.984 38.0659 27.376C38.0659 26.736 38.3219 26.24 38.8339 25.888C39.3459 25.536 39.7939 25.36 40.1779 25.36ZM35.6659 31.696C35.8259 31.44 36.0499 31.312 36.3379 31.312C36.6259 31.312 36.9139 31.456 37.2019 31.744C37.2019 31.872 36.9939 32.16 36.5779 32.608C36.1619 33.056 35.4579 34.064 34.4659 35.632C33.4739 37.168 32.9779 38.192 32.9779 38.704C32.9779 39.024 33.2179 39.216 33.6979 39.28C34.3379 39.28 35.3299 38.976 36.6739 38.368C38.0179 37.728 39.2019 37.088 40.2259 36.448L41.7619 35.488C41.7939 35.552 41.8099 35.68 41.8099 35.872C41.8099 36.064 41.6659 36.224 41.3779 36.352C37.0579 39.296 34.0499 40.768 32.3539 40.768C31.5219 40.768 31.1059 40.352 31.1059 39.52C31.1059 38.688 31.5539 37.536 32.4499 36.064C33.3779 34.56 34.4499 33.104 35.6659 31.696ZM46.7356 38.656C48.2716 38.016 49.9196 37.152 51.6796 36.064L52.5916 35.488C52.6236 35.552 52.6396 35.68 52.6396 35.872C52.6396 36.064 52.4956 36.224 52.2076 36.352C50.5116 37.504 48.8156 38.512 47.1196 39.376C45.4236 40.24 43.8556 40.672 42.4156 40.672C40.5916 40.672 39.6796 40.016 39.6796 38.704C39.6796 37.136 40.7676 35.376 42.9436 33.424C45.1516 31.44 47.3276 30.448 49.4716 30.448C50.3676 30.448 50.8156 30.832 50.8156 31.6C50.8156 32.048 50.4156 32.608 49.6156 33.28C48.4956 34.208 47.7916 34.672 47.5036 34.672C47.2156 34.672 47.0716 34.544 47.0716 34.288C47.0716 34.192 47.1356 34.096 47.2636 34C47.5836 33.808 47.9356 33.52 48.3196 33.136C48.7356 32.72 48.9436 32.368 48.9436 32.08C48.9436 31.632 48.7356 31.408 48.3196 31.408C47.4236 31.408 46.1116 32.224 44.3836 33.856C42.6556 35.456 41.7916 36.752 41.7916 37.744C41.7916 38.864 42.3996 39.424 43.6156 39.424C44.4156 39.424 45.2956 39.232 46.2556 38.848L46.7356 38.656ZM62.6037 37.792L66.5397 35.488C66.5717 35.552 66.5877 35.68 66.5877 35.872C66.5877 36.064 66.4437 36.224 66.1557 36.352C61.8037 39.264 58.6997 40.72 56.8437 40.72C55.2437 40.72 54.4437 39.664 54.4437 37.552C54.4437 36.688 54.5877 35.904 54.8757 35.2C55.1637 34.464 55.6277 34.096 56.2677 34.096C58.4757 34.096 60.1877 33.76 61.4037 33.088C62.6517 32.416 63.2757 31.728 63.2757 31.024C63.2757 30.288 62.7637 29.92 61.7397 29.92C59.4357 29.92 56.5077 32 52.9557 36.16C51.8677 38.208 51.0517 39.776 50.5077 40.864C50.3477 41.152 50.1237 41.296 49.8357 41.296C49.1957 41.296 48.8757 41.072 48.8757 40.624C48.8757 40.432 48.9397 40.208 49.0677 39.952L53.3397 32.464C56.0597 27.664 58.8437 23.344 61.6917 19.504C64.5397 15.664 66.6837 13.744 68.1237 13.744C68.6037 13.744 68.9397 13.968 69.1317 14.416C69.2277 14.576 69.2757 14.768 69.2757 14.992C69.2757 16.144 68.2837 17.952 66.2997 20.416C64.3157 22.88 62.4597 24.96 60.7317 26.656C59.0037 28.352 57.2437 30 55.4517 31.6L54.1077 34C57.5637 30.48 60.5717 28.72 63.1317 28.72C64.6037 28.72 65.3397 29.2 65.3397 30.16C65.3397 31.216 64.5077 32.272 62.8437 33.328C61.2117 34.384 59.1637 34.912 56.6997 34.912C56.3477 35.424 56.1717 36 56.1717 36.64C56.1717 38.432 56.8757 39.328 58.2837 39.328C59.3077 39.328 60.6997 38.848 62.4597 37.888C62.5237 37.824 62.5717 37.792 62.6037 37.792ZM67.6917 15.52C67.6917 15.2 67.6117 15.04 67.4517 15.04C65.6917 15.04 62.0277 19.936 56.4597 29.728C59.2757 27.136 61.8517 24.496 64.1877 21.808C66.5237 19.088 67.6917 16.992 67.6917 15.52ZM95.0911 34.816C95.3471 34.816 95.4751 35.008 95.4751 35.392C95.4751 35.872 94.7231 36.608 93.2191 37.6C91.7471 38.592 89.8271 39.504 87.4591 40.336C85.1231 41.2 82.9791 41.632 81.0271 41.632C76.0351 41.632 73.5391 38.864 73.5391 33.328C73.5391 30.512 74.1631 27.68 75.4111 24.832C76.6911 21.984 78.3231 19.456 80.3071 17.248C82.3231 15.008 84.4991 13.008 86.8351 11.248C89.2031 9.48799 91.5391 8.14399 93.8431 7.21599C96.1791 6.25599 98.2271 5.77599 99.9871 5.77599C103.635 5.77599 105.459 7.18399 105.459 9.99999C105.459 12.112 104.483 14.624 102.531 17.536C100.579 20.448 98.1951 22.976 95.3791 25.12C92.5631 27.264 90.0351 28.336 87.7951 28.336C86.0671 28.336 85.2031 27.52 85.2031 25.888C85.2031 23.808 86.5471 21.248 89.2351 18.208C91.9551 15.136 94.2751 13.6 96.1951 13.6C96.4511 13.6 96.5791 13.696 96.5791 13.888L96.3391 14.512C95.1871 14.512 93.8271 15.168 92.2591 16.48C90.6911 17.792 89.3631 19.312 88.2751 21.04C87.1871 22.768 86.6431 24.208 86.6431 25.36C86.6431 26.64 87.2991 27.28 88.6111 27.28C90.2431 27.28 92.2431 26.288 94.6111 24.304C97.0111 22.32 99.0751 19.984 100.803 17.296C102.563 14.576 103.443 12.288 103.443 10.432C103.443 8.09599 101.971 6.92799 99.0271 6.92799C97.4911 6.92799 95.6831 7.37599 93.6031 8.27199C91.5231 9.13599 89.4271 10.4 87.3151 12.064C85.2031 13.728 83.2351 15.6 81.4111 17.68C79.6191 19.76 78.1471 22.144 76.9951 24.832C75.8751 27.488 75.3151 30.144 75.3151 32.8C75.3151 37.856 77.5551 40.384 82.0351 40.384C84.3711 40.384 86.8991 39.76 89.6191 38.512C92.3391 37.232 94.1631 36 95.0911 34.816ZM106.13 36.64C105.138 37.248 103.986 37.552 102.674 37.552H102.098C101.234 38.544 100.306 39.36 99.3143 40C98.3543 40.608 97.5223 40.912 96.8183 40.912C95.8263 40.912 95.3303 40.272 95.3303 38.992C95.3303 37.712 96.0183 36.224 97.3943 34.528C97.2663 34.176 97.2023 33.744 97.2023 33.232C97.2023 32.112 97.6823 31.152 98.6423 30.352C99.6343 29.52 100.594 29.104 101.522 29.104C103.474 29.104 104.45 30.16 104.45 32.272C104.45 33.68 103.842 35.216 102.626 36.88H103.202C104.226 36.88 105.106 36.64 105.842 36.16C105.938 36.064 106.066 36.016 106.226 36.016C106.386 36.016 106.466 36.08 106.466 36.208C106.466 36.304 106.354 36.448 106.13 36.64ZM101.522 31.12C101.682 31.056 101.81 31.024 101.906 31.024C102.002 31.024 102.05 31.104 102.05 31.264C102.05 31.392 101.874 31.584 101.522 31.84C100.242 32.832 99.2823 33.728 98.6423 34.528C99.3463 35.648 100.418 36.384 101.858 36.736C103.106 35.264 103.73 33.888 103.73 32.608C103.73 31.872 103.49 31.312 103.01 30.928C102.53 30.544 101.906 30.352 101.138 30.352C100.402 30.352 99.7143 30.576 99.0743 31.024C98.4343 31.44 98.1143 31.904 98.1143 32.416C98.1143 32.896 98.1623 33.28 98.2583 33.568C99.2503 32.544 100.338 31.728 101.522 31.12ZM97.9703 35.584C97.4583 36.448 97.2023 37.408 97.2023 38.464C97.2023 39.04 97.4583 39.328 97.9703 39.328C98.8343 39.328 99.9063 38.688 101.186 37.408C99.7463 37.152 98.6743 36.544 97.9703 35.584ZM105.508 36.352C106.116 36 106.916 35.44 107.908 34.672C110.34 32.752 111.636 31.792 111.796 31.792C112.276 31.792 112.516 32 112.516 32.416C112.516 32.832 112.26 33.472 111.748 34.336C111.268 35.2 110.708 36.096 110.068 37.024C109.46 37.952 109.108 38.512 109.012 38.704C109.044 38.736 109.108 38.752 109.204 38.752C109.332 38.752 109.972 38.336 111.124 37.504C112.276 36.64 113.476 35.744 114.724 34.816C115.972 33.856 116.708 33.312 116.932 33.184C117.156 33.024 117.364 32.944 117.556 32.944C117.94 32.976 118.132 33.2 118.132 33.616C118.132 33.776 117.588 34.592 116.5 36.064C115.412 37.504 114.868 38.432 114.868 38.848C114.868 39.136 115.204 39.28 115.876 39.28C116.58 39.28 117.604 38.976 118.948 38.368C120.292 37.728 121.476 37.088 122.5 36.448L124.036 35.488C124.068 35.552 124.084 35.68 124.084 35.872C124.084 36.064 123.94 36.224 123.652 36.352C119.332 39.296 116.324 40.768 114.628 40.768C113.636 40.768 113.14 40.384 113.14 39.616C113.14 38.88 113.348 38.176 113.764 37.504C114.212 36.832 114.596 36.272 114.916 35.824C115.236 35.344 115.396 35.088 115.396 35.056C113.924 36.112 112.18 37.376 110.164 38.848C108.148 40.32 107.012 41.056 106.756 41.056C106.564 41.056 106.468 40.832 106.468 40.384C106.468 39.936 107.092 38.768 108.34 36.88C109.62 34.992 110.26 33.984 110.26 33.856C110.26 33.728 110.228 33.664 110.164 33.664L109.684 33.904L107.284 35.824C107.124 35.952 106.82 36.16 106.372 36.448C105.924 36.736 105.636 36.88 105.508 36.88C105.412 36.88 105.364 36.816 105.364 36.688C105.364 36.528 105.412 36.416 105.508 36.352ZM122.664 36.352C123.272 36 124.072 35.44 125.064 34.672C127.496 32.752 128.792 31.792 128.952 31.792C129.432 31.792 129.672 32 129.672 32.416C129.672 32.832 129.416 33.472 128.904 34.336C128.424 35.2 127.864 36.096 127.224 37.024C126.616 37.952 126.264 38.512 126.168 38.704C126.2 38.736 126.264 38.752 126.36 38.752C126.488 38.752 127.128 38.336 128.28 37.504C129.432 36.64 130.632 35.744 131.88 34.816C133.128 33.856 133.864 33.312 134.088 33.184C134.312 33.024 134.52 32.944 134.712 32.944C135.096 32.976 135.288 33.2 135.288 33.616C135.288 33.776 134.744 34.592 133.656 36.064C132.568 37.504 132.024 38.432 132.024 38.848C132.024 39.136 132.36 39.28 133.032 39.28C133.736 39.28 134.76 38.976 136.104 38.368C137.448 37.728 138.632 37.088 139.656 36.448L141.192 35.488C141.224 35.552 141.24 35.68 141.24 35.872C141.24 36.064 141.096 36.224 140.808 36.352C136.488 39.296 133.48 40.768 131.784 40.768C130.792 40.768 130.296 40.384 130.296 39.616C130.296 38.88 130.504 38.176 130.92 37.504C131.368 36.832 131.752 36.272 132.072 35.824C132.392 35.344 132.552 35.088 132.552 35.056C131.08 36.112 129.336 37.376 127.32 38.848C125.304 40.32 124.168 41.056 123.912 41.056C123.72 41.056 123.624 40.832 123.624 40.384C123.624 39.936 124.248 38.768 125.496 36.88C126.776 34.992 127.416 33.984 127.416 33.856C127.416 33.728 127.384 33.664 127.32 33.664L126.84 33.904L124.44 35.824C124.28 35.952 123.976 36.16 123.528 36.448C123.08 36.736 122.792 36.88 122.664 36.88C122.568 36.88 122.52 36.816 122.52 36.688C122.52 36.528 122.568 36.416 122.664 36.352ZM141.102 35.344C139.182 35.344 138.222 34.928 138.222 34.096C138.222 33.104 139.358 31.936 141.63 30.592C143.902 29.216 145.95 28.528 147.774 28.528C148.702 28.528 149.166 28.816 149.166 29.392C149.166 29.712 148.926 30.064 148.446 30.448C147.966 30.832 147.502 31.136 147.054 31.36C146.606 31.584 146.35 31.696 146.286 31.696C146.094 31.696 145.966 31.616 145.902 31.456C145.838 31.232 145.998 31.008 146.382 30.784C146.798 30.528 147.006 30.256 147.006 29.968C147.006 29.68 146.638 29.536 145.902 29.536C145.198 29.536 144.078 30.048 142.542 31.072C141.006 32.064 140.238 32.88 140.238 33.52C140.238 34 140.798 34.24 141.918 34.24C142.11 34.24 142.462 34.224 142.974 34.192C143.486 34.16 143.742 34.224 143.742 34.384C143.742 34.544 142.942 35.12 141.342 36.112C139.774 37.104 138.99 37.952 138.99 38.656C138.99 39.456 139.502 39.856 140.526 39.856C141.582 39.856 142.766 39.584 144.078 39.04C146.19 38.112 148.11 37.12 149.838 36.064L150.75 35.488C150.782 35.552 150.798 35.68 150.798 35.872C150.798 36.064 150.654 36.224 150.366 36.352C148.67 37.504 146.814 38.608 144.798 39.664C142.782 40.688 140.958 41.2 139.326 41.2C137.726 41.2 136.926 40.672 136.926 39.616C136.926 38.528 138.318 37.104 141.102 35.344ZM155.72 38.656C157.256 38.016 158.904 37.152 160.664 36.064L161.576 35.488C161.608 35.552 161.624 35.68 161.624 35.872C161.624 36.064 161.48 36.224 161.192 36.352C159.496 37.504 157.8 38.512 156.104 39.376C154.408 40.24 152.84 40.672 151.4 40.672C149.576 40.672 148.664 40.016 148.664 38.704C148.664 37.136 149.752 35.376 151.928 33.424C154.136 31.44 156.312 30.448 158.456 30.448C159.352 30.448 159.8 30.832 159.8 31.6C159.8 32.048 159.4 32.608 158.6 33.28C157.48 34.208 156.776 34.672 156.488 34.672C156.2 34.672 156.056 34.544 156.056 34.288C156.056 34.192 156.12 34.096 156.248 34C156.568 33.808 156.92 33.52 157.304 33.136C157.72 32.72 157.928 32.368 157.928 32.08C157.928 31.632 157.72 31.408 157.304 31.408C156.408 31.408 155.096 32.224 153.368 33.856C151.64 35.456 150.776 36.752 150.776 37.744C150.776 38.864 151.384 39.424 152.6 39.424C153.4 39.424 154.28 39.232 155.24 38.848L155.72 38.656ZM161.22 24.16C163.396 24.16 165.54 24.144 167.652 24.112C171.076 19.728 173.412 17.536 174.66 17.536C175.108 17.536 175.332 17.776 175.332 18.256C175.332 19.792 174.212 21.712 171.972 24.016L175.62 23.968C178.052 23.872 179.54 23.824 180.084 23.824C180.628 23.824 180.9 23.888 180.9 24.016C180.9 24.624 180.484 24.944 179.652 24.976L170.628 25.36C169.06 26.832 167.124 28.384 164.82 30.016C162.388 34.016 161.172 36.736 161.172 38.176C161.172 38.912 161.636 39.28 162.564 39.28C163.524 39.28 165.028 38.768 167.076 37.744L170.964 35.488C170.996 35.552 171.012 35.68 171.012 35.872C171.012 36.064 170.868 36.224 170.58 36.352C169.556 37.056 168.436 37.76 167.22 38.464C164.628 39.776 162.644 40.432 161.268 40.432C160.628 40.432 160.132 40.304 159.78 40.048C159.428 39.792 159.236 39.536 159.204 39.28L159.108 38.896C159.108 37.808 159.844 35.984 161.316 33.424C162.788 30.832 164.532 28.192 166.548 25.504C165.012 25.568 163.556 25.6 162.18 25.6C160.804 25.6 160.116 25.44 160.116 25.12C160.116 24.512 160.484 24.192 161.22 24.16ZM173.844 19.264C173.844 19.104 173.78 19.024 173.652 19.024C172.916 19.024 171.284 20.704 168.756 24.064H171.156C172.948 22.112 173.844 20.512 173.844 19.264ZM169.812 25.408C168.788 25.408 168.1 25.424 167.748 25.456C167.46 25.872 167.06 26.48 166.548 27.28C166.036 28.08 165.684 28.624 165.492 28.912C167.156 27.696 168.596 26.528 169.812 25.408Z" fill="white"/>
<path fill-rule="evenodd" clip-rule="evenodd" d="M166.076 9.39071C165.439 9.87745 164.92 10.5609 164.598 11.3381C164.504 11.5649 164.366 12.0678 164.323 12.3364C164.211 13.0477 164.272 13.8334 164.494 14.5153C164.82 15.5154 165.488 16.396 166.368 16.9824C167.653 17.8395 169.26 18.0003 170.694 17.4153C170.967 17.3038 171.52 16.9786 171.751 16.7932C172.265 16.3821 172.707 15.8414 172.994 15.2741C173.053 15.1566 173.097 15.0955 173.121 15.0976C173.141 15.0994 174.865 15.7808 176.952 16.6117L180.745 18.1225L180.689 18.4574C180.485 19.6618 180.64 20.8357 181.153 21.9717C181.348 22.4052 181.892 23.2481 182.104 23.4464C182.147 23.4865 176.945 29.7329 176.891 29.7059C176.871 29.6957 176.833 29.6745 176.806 29.6586C176.78 29.6427 176.646 29.5802 176.508 29.5198C175.282 28.9817 173.849 29.0136 172.667 29.6053C171.49 30.1939 170.664 31.1738 170.284 32.4292C170.018 33.3125 170.043 34.3664 170.353 35.2817C170.476 35.6445 170.839 36.3098 171.087 36.6256C172.058 37.8645 173.514 38.5225 175.062 38.4221C175.531 38.3917 175.917 38.3101 176.408 38.1376C176.627 38.0607 177.251 37.7174 177.471 37.5532C178.409 36.8515 179.051 35.8296 179.26 34.7072C179.428 33.8007 179.34 32.9233 178.993 32.0521C178.912 31.8487 178.836 31.7054 178.633 31.3765C178.492 31.1469 178.363 30.9422 178.346 30.9215C178.316 30.8841 178.604 30.5336 183.372 24.8098L183.507 24.6473L183.723 24.7685C184.411 25.1543 185.168 25.4071 185.916 25.5005C186.944 25.6289 187.921 25.5066 188.904 25.1265C189.029 25.0783 189.301 24.9343 189.665 24.7242C190.163 24.4361 190.26 24.3725 190.472 24.1926C191.489 23.3303 192.15 22.2683 192.465 20.9917C192.784 19.7004 192.674 18.3915 192.14 17.1134C192.024 16.8351 191.627 16.1482 191.435 15.8941C190.612 14.8053 189.423 13.9922 188.146 13.6464C186.948 13.3221 185.674 13.3777 184.49 13.806C184.13 13.9363 183.411 14.3216 183.08 14.5616C182.49 14.9896 182.012 15.4982 181.586 16.1517C181.481 16.3131 181.384 16.4414 181.37 16.4369C181.232 16.3908 173.53 13.318 173.523 13.3064C173.518 13.2979 173.512 13.1881 173.51 13.0625C173.506 12.7585 173.453 12.3442 173.38 12.0458C173.183 11.2303 172.696 10.3761 172.101 9.80201C170.742 8.48933 168.807 8.10366 167.106 8.80648C166.824 8.92275 166.296 9.22226 166.076 9.39071ZM172.925 31.5593C172.125 32.2169 171.735 33.3156 171.944 34.3293C172.091 35.0389 172.454 35.6127 173.049 36.0711C173.381 36.3273 173.948 36.5558 174.394 36.6132C174.788 36.664 175.29 36.6088 175.69 36.4708C175.941 36.3842 176.361 36.1416 176.562 35.9672C177.521 35.1344 177.81 33.7976 177.286 32.6101C177.133 32.2619 176.867 31.9096 176.552 31.6368C175.792 30.9796 174.768 30.7737 173.795 31.083C173.554 31.1596 173.128 31.3932 172.925 31.5593Z" fill="url(#paint0_linear_10_3)"/>
<defs>
<linearGradient id="paint0_linear_10_3" x1="161.629" y1="-3.78587" x2="176.694" y2="22.3063" gradientUnits="userSpaceOnUse">
<stop/>
<stop offset="0.0001" stop-color="#C01391"/>
<stop offset="1" stop-color="#861FEF"/>
</linearGradient>
</defs>
</svg>
